<mxfile host="app.diagrams.net" agent="Mozilla/5.0 (X11; Ubuntu; Linux x86_64; rv:133.0) Gecko/20100101 Firefox/133.0" version="25.0.3">
  <diagram name="Page-1" id="-Mqs1Dr5-py3yci1nZ4G">
    <mxGraphModel dx="989" dy="493" grid="1" gridSize="10" guides="1" tooltips="1" connect="1" arrows="1" fold="1" page="1" pageScale="1" pageWidth="827" pageHeight="1169" math="0" shadow="0">
      <root>
        <mxCell id="0" />
        <mxCell id="1" parent="0" />
        <mxCell id="eINzgIuend_n-zqg4X1g-13" style="edgeStyle=orthogonalEdgeStyle;rounded=0;orthogonalLoop=1;jettySize=auto;html=1;entryX=0;entryY=0.5;entryDx=0;entryDy=0;strokeWidth=2;" edge="1" parent="1" source="eINzgIuend_n-zqg4X1g-1" target="eINzgIuend_n-zqg4X1g-12">
          <mxGeometry relative="1" as="geometry">
            <Array as="points">
              <mxPoint x="320" y="260" />
              <mxPoint x="320" y="340" />
            </Array>
          </mxGeometry>
        </mxCell>
        <mxCell id="eINzgIuend_n-zqg4X1g-1" value="&lt;font style=&quot;font-size: 16px;&quot;&gt;&lt;b&gt;h&lt;sub&gt;1&lt;/sub&gt;&lt;/b&gt;&lt;/font&gt;" style="rounded=0;whiteSpace=wrap;html=1;strokeWidth=2;fillColor=#fff2cc;strokeColor=#d6b656;" vertex="1" parent="1">
          <mxGeometry x="240" y="240" width="40" height="40" as="geometry" />
        </mxCell>
        <mxCell id="eINzgIuend_n-zqg4X1g-3" style="edgeStyle=orthogonalEdgeStyle;rounded=0;orthogonalLoop=1;jettySize=auto;html=1;entryX=0.5;entryY=1;entryDx=0;entryDy=0;strokeWidth=2;" edge="1" parent="1" source="eINzgIuend_n-zqg4X1g-6" target="eINzgIuend_n-zqg4X1g-1">
          <mxGeometry relative="1" as="geometry" />
        </mxCell>
        <mxCell id="eINzgIuend_n-zqg4X1g-2" value="&lt;font style=&quot;font-size: 16px;&quot;&gt;&lt;b&gt;x&lt;sub&gt;1&lt;/sub&gt;&lt;/b&gt;&lt;/font&gt;" style="rounded=0;whiteSpace=wrap;html=1;strokeWidth=2;fillColor=#d5e8d4;strokeColor=#82b366;" vertex="1" parent="1">
          <mxGeometry x="240" y="400" width="40" height="40" as="geometry" />
        </mxCell>
        <mxCell id="eINzgIuend_n-zqg4X1g-5" style="edgeStyle=orthogonalEdgeStyle;rounded=0;orthogonalLoop=1;jettySize=auto;html=1;entryX=0;entryY=0.5;entryDx=0;entryDy=0;strokeWidth=2;" edge="1" parent="1" source="eINzgIuend_n-zqg4X1g-4" target="eINzgIuend_n-zqg4X1g-6">
          <mxGeometry relative="1" as="geometry">
            <Array as="points">
              <mxPoint x="200" y="260" />
              <mxPoint x="200" y="340" />
            </Array>
          </mxGeometry>
        </mxCell>
        <mxCell id="eINzgIuend_n-zqg4X1g-4" value="&lt;font style=&quot;font-size: 16px;&quot;&gt;&lt;b&gt;h&lt;sub&gt;0&lt;/sub&gt;&lt;/b&gt;&lt;/font&gt;" style="rounded=0;whiteSpace=wrap;html=1;strokeWidth=2;fillColor=#fff2cc;strokeColor=#d6b656;" vertex="1" parent="1">
          <mxGeometry x="120" y="240" width="40" height="40" as="geometry" />
        </mxCell>
        <mxCell id="eINzgIuend_n-zqg4X1g-7" value="" style="edgeStyle=orthogonalEdgeStyle;rounded=0;orthogonalLoop=1;jettySize=auto;html=1;entryX=0.5;entryY=1;entryDx=0;entryDy=0;strokeWidth=2;" edge="1" parent="1" source="eINzgIuend_n-zqg4X1g-2" target="eINzgIuend_n-zqg4X1g-6">
          <mxGeometry relative="1" as="geometry">
            <mxPoint x="260" y="400" as="sourcePoint" />
            <mxPoint x="260" y="280" as="targetPoint" />
          </mxGeometry>
        </mxCell>
        <mxCell id="eINzgIuend_n-zqg4X1g-6" value="f" style="ellipse;whiteSpace=wrap;html=1;aspect=fixed;strokeWidth=2;dashed=1;dashPattern=1 1;" vertex="1" parent="1">
          <mxGeometry x="250" y="330" width="20" height="20" as="geometry" />
        </mxCell>
        <mxCell id="eINzgIuend_n-zqg4X1g-19" style="edgeStyle=orthogonalEdgeStyle;rounded=0;orthogonalLoop=1;jettySize=auto;html=1;entryX=0;entryY=0.5;entryDx=0;entryDy=0;strokeWidth=2;" edge="1" parent="1" source="eINzgIuend_n-zqg4X1g-8" target="eINzgIuend_n-zqg4X1g-18">
          <mxGeometry relative="1" as="geometry">
            <Array as="points">
              <mxPoint x="440" y="260" />
              <mxPoint x="440" y="340" />
            </Array>
          </mxGeometry>
        </mxCell>
        <mxCell id="eINzgIuend_n-zqg4X1g-8" value="&lt;font style=&quot;font-size: 16px;&quot;&gt;&lt;b&gt;h&lt;sub&gt;2&lt;/sub&gt;&lt;/b&gt;&lt;/font&gt;" style="rounded=0;whiteSpace=wrap;html=1;strokeWidth=2;fillColor=#fff2cc;strokeColor=#d6b656;" vertex="1" parent="1">
          <mxGeometry x="360" y="240" width="40" height="40" as="geometry" />
        </mxCell>
        <mxCell id="eINzgIuend_n-zqg4X1g-9" style="edgeStyle=orthogonalEdgeStyle;rounded=0;orthogonalLoop=1;jettySize=auto;html=1;entryX=0.5;entryY=1;entryDx=0;entryDy=0;strokeWidth=2;" edge="1" parent="1" source="eINzgIuend_n-zqg4X1g-12" target="eINzgIuend_n-zqg4X1g-8">
          <mxGeometry relative="1" as="geometry" />
        </mxCell>
        <mxCell id="eINzgIuend_n-zqg4X1g-10" value="&lt;font style=&quot;font-size: 16px;&quot;&gt;&lt;b&gt;x&lt;sub&gt;2&lt;/sub&gt;&lt;/b&gt;&lt;/font&gt;" style="rounded=0;whiteSpace=wrap;html=1;strokeWidth=2;fillColor=#d5e8d4;strokeColor=#82b366;" vertex="1" parent="1">
          <mxGeometry x="360" y="400" width="40" height="40" as="geometry" />
        </mxCell>
        <mxCell id="eINzgIuend_n-zqg4X1g-11" value="" style="edgeStyle=orthogonalEdgeStyle;rounded=0;orthogonalLoop=1;jettySize=auto;html=1;entryX=0.5;entryY=1;entryDx=0;entryDy=0;strokeWidth=2;" edge="1" parent="1" source="eINzgIuend_n-zqg4X1g-10" target="eINzgIuend_n-zqg4X1g-12">
          <mxGeometry relative="1" as="geometry">
            <mxPoint x="380" y="400" as="sourcePoint" />
            <mxPoint x="380" y="280" as="targetPoint" />
          </mxGeometry>
        </mxCell>
        <mxCell id="eINzgIuend_n-zqg4X1g-12" value="f" style="ellipse;whiteSpace=wrap;html=1;aspect=fixed;strokeWidth=2;dashed=1;dashPattern=1 1;" vertex="1" parent="1">
          <mxGeometry x="370" y="330" width="20" height="20" as="geometry" />
        </mxCell>
        <mxCell id="eINzgIuend_n-zqg4X1g-14" value="&lt;font style=&quot;font-size: 16px;&quot;&gt;&lt;b&gt;h&lt;sub&gt;3&lt;/sub&gt;&lt;/b&gt;&lt;/font&gt;" style="rounded=0;whiteSpace=wrap;html=1;strokeWidth=2;fillColor=#fff2cc;strokeColor=#d6b656;" vertex="1" parent="1">
          <mxGeometry x="480" y="240" width="40" height="40" as="geometry" />
        </mxCell>
        <mxCell id="eINzgIuend_n-zqg4X1g-15" style="edgeStyle=orthogonalEdgeStyle;rounded=0;orthogonalLoop=1;jettySize=auto;html=1;entryX=0.5;entryY=1;entryDx=0;entryDy=0;strokeWidth=2;" edge="1" parent="1" source="eINzgIuend_n-zqg4X1g-18" target="eINzgIuend_n-zqg4X1g-14">
          <mxGeometry relative="1" as="geometry" />
        </mxCell>
        <mxCell id="eINzgIuend_n-zqg4X1g-16" value="&lt;font style=&quot;font-size: 16px;&quot;&gt;&lt;b&gt;x&lt;sub&gt;3&lt;/sub&gt;&lt;/b&gt;&lt;/font&gt;" style="rounded=0;whiteSpace=wrap;html=1;strokeWidth=2;fillColor=#d5e8d4;strokeColor=#82b366;" vertex="1" parent="1">
          <mxGeometry x="480" y="400" width="40" height="40" as="geometry" />
        </mxCell>
        <mxCell id="eINzgIuend_n-zqg4X1g-17" value="" style="edgeStyle=orthogonalEdgeStyle;rounded=0;orthogonalLoop=1;jettySize=auto;html=1;entryX=0.5;entryY=1;entryDx=0;entryDy=0;strokeWidth=2;" edge="1" parent="1" source="eINzgIuend_n-zqg4X1g-16" target="eINzgIuend_n-zqg4X1g-18">
          <mxGeometry relative="1" as="geometry">
            <mxPoint x="500" y="400" as="sourcePoint" />
            <mxPoint x="500" y="280" as="targetPoint" />
          </mxGeometry>
        </mxCell>
        <mxCell id="eINzgIuend_n-zqg4X1g-18" value="f" style="ellipse;whiteSpace=wrap;html=1;aspect=fixed;strokeWidth=2;dashed=1;dashPattern=1 1;" vertex="1" parent="1">
          <mxGeometry x="490" y="330" width="20" height="20" as="geometry" />
        </mxCell>
        <mxCell id="eINzgIuend_n-zqg4X1g-20" style="edgeStyle=orthogonalEdgeStyle;rounded=0;orthogonalLoop=1;jettySize=auto;html=1;entryX=0;entryY=0.5;entryDx=0;entryDy=0;strokeWidth=2;" edge="1" parent="1" target="eINzgIuend_n-zqg4X1g-25">
          <mxGeometry relative="1" as="geometry">
            <mxPoint x="520" y="260" as="sourcePoint" />
            <Array as="points">
              <mxPoint x="560" y="260" />
              <mxPoint x="560" y="340" />
            </Array>
          </mxGeometry>
        </mxCell>
        <mxCell id="eINzgIuend_n-zqg4X1g-21" value="&lt;font style=&quot;font-size: 16px;&quot;&gt;&lt;b&gt;h&lt;sub&gt;4&lt;/sub&gt;&lt;/b&gt;&lt;/font&gt;" style="rounded=0;whiteSpace=wrap;html=1;strokeWidth=2;fillColor=#fff2cc;strokeColor=#d6b656;" vertex="1" parent="1">
          <mxGeometry x="600" y="240" width="40" height="40" as="geometry" />
        </mxCell>
        <mxCell id="eINzgIuend_n-zqg4X1g-22" style="edgeStyle=orthogonalEdgeStyle;rounded=0;orthogonalLoop=1;jettySize=auto;html=1;entryX=0.5;entryY=1;entryDx=0;entryDy=0;strokeWidth=2;" edge="1" parent="1" source="eINzgIuend_n-zqg4X1g-25" target="eINzgIuend_n-zqg4X1g-21">
          <mxGeometry relative="1" as="geometry" />
        </mxCell>
        <mxCell id="eINzgIuend_n-zqg4X1g-23" value="&lt;font style=&quot;font-size: 16px;&quot;&gt;&lt;b&gt;x&lt;sub&gt;4&lt;/sub&gt;&lt;/b&gt;&lt;/font&gt;" style="rounded=0;whiteSpace=wrap;html=1;strokeWidth=2;fillColor=#d5e8d4;strokeColor=#82b366;" vertex="1" parent="1">
          <mxGeometry x="600" y="400" width="40" height="40" as="geometry" />
        </mxCell>
        <mxCell id="eINzgIuend_n-zqg4X1g-24" value="" style="edgeStyle=orthogonalEdgeStyle;rounded=0;orthogonalLoop=1;jettySize=auto;html=1;entryX=0.5;entryY=1;entryDx=0;entryDy=0;strokeWidth=2;" edge="1" parent="1" source="eINzgIuend_n-zqg4X1g-23" target="eINzgIuend_n-zqg4X1g-25">
          <mxGeometry relative="1" as="geometry">
            <mxPoint x="620" y="400" as="sourcePoint" />
            <mxPoint x="620" y="280" as="targetPoint" />
          </mxGeometry>
        </mxCell>
        <mxCell id="eINzgIuend_n-zqg4X1g-25" value="f" style="ellipse;whiteSpace=wrap;html=1;aspect=fixed;strokeWidth=2;dashed=1;dashPattern=1 1;" vertex="1" parent="1">
          <mxGeometry x="610" y="330" width="20" height="20" as="geometry" />
        </mxCell>
        <mxCell id="eINzgIuend_n-zqg4X1g-27" value="&lt;font color=&quot;#c4a000&quot; style=&quot;font-size: 16px;&quot;&gt;&lt;b&gt;W&lt;sub&gt;hh&lt;/sub&gt;&lt;/b&gt;&lt;/font&gt;" style="text;html=1;align=center;verticalAlign=middle;whiteSpace=wrap;rounded=0;" vertex="1" parent="1">
          <mxGeometry x="200" y="310" width="60" height="30" as="geometry" />
        </mxCell>
        <mxCell id="eINzgIuend_n-zqg4X1g-28" value="&lt;font color=&quot;#a40000&quot; style=&quot;font-size: 16px;&quot;&gt;&lt;b&gt;W&lt;sub&gt;ih&lt;/sub&gt;&lt;/b&gt;&lt;/font&gt;" style="text;html=1;align=center;verticalAlign=middle;whiteSpace=wrap;rounded=0;" vertex="1" parent="1">
          <mxGeometry x="260" y="350" width="50" height="40" as="geometry" />
        </mxCell>
        <mxCell id="eINzgIuend_n-zqg4X1g-29" value="&lt;font color=&quot;#c4a000&quot; style=&quot;font-size: 16px;&quot;&gt;&lt;b&gt;W&lt;sub&gt;hh&lt;/sub&gt;&lt;/b&gt;&lt;/font&gt;" style="text;html=1;align=center;verticalAlign=middle;whiteSpace=wrap;rounded=0;" vertex="1" parent="1">
          <mxGeometry x="320" y="310" width="60" height="30" as="geometry" />
        </mxCell>
        <mxCell id="eINzgIuend_n-zqg4X1g-30" value="&lt;font color=&quot;#a40000&quot; style=&quot;font-size: 16px;&quot;&gt;&lt;b&gt;W&lt;sub&gt;ih&lt;/sub&gt;&lt;/b&gt;&lt;/font&gt;" style="text;html=1;align=center;verticalAlign=middle;whiteSpace=wrap;rounded=0;" vertex="1" parent="1">
          <mxGeometry x="380" y="350" width="50" height="40" as="geometry" />
        </mxCell>
        <mxCell id="eINzgIuend_n-zqg4X1g-31" value="&lt;font color=&quot;#c4a000&quot; style=&quot;font-size: 16px;&quot;&gt;&lt;b&gt;W&lt;sub&gt;hh&lt;/sub&gt;&lt;/b&gt;&lt;/font&gt;" style="text;html=1;align=center;verticalAlign=middle;whiteSpace=wrap;rounded=0;" vertex="1" parent="1">
          <mxGeometry x="440" y="310" width="60" height="30" as="geometry" />
        </mxCell>
        <mxCell id="eINzgIuend_n-zqg4X1g-32" value="&lt;font color=&quot;#a40000&quot; style=&quot;font-size: 16px;&quot;&gt;&lt;b&gt;W&lt;sub&gt;ih&lt;/sub&gt;&lt;/b&gt;&lt;/font&gt;" style="text;html=1;align=center;verticalAlign=middle;whiteSpace=wrap;rounded=0;" vertex="1" parent="1">
          <mxGeometry x="500" y="350" width="50" height="40" as="geometry" />
        </mxCell>
        <mxCell id="eINzgIuend_n-zqg4X1g-33" value="&lt;font color=&quot;#c4a000&quot; style=&quot;font-size: 16px;&quot;&gt;&lt;b&gt;W&lt;sub&gt;hh&lt;/sub&gt;&lt;/b&gt;&lt;/font&gt;" style="text;html=1;align=center;verticalAlign=middle;whiteSpace=wrap;rounded=0;" vertex="1" parent="1">
          <mxGeometry x="560" y="310" width="60" height="30" as="geometry" />
        </mxCell>
        <mxCell id="eINzgIuend_n-zqg4X1g-34" value="&lt;font color=&quot;#a40000&quot; style=&quot;font-size: 16px;&quot;&gt;&lt;b&gt;W&lt;sub&gt;ih&lt;/sub&gt;&lt;/b&gt;&lt;/font&gt;" style="text;html=1;align=center;verticalAlign=middle;whiteSpace=wrap;rounded=0;" vertex="1" parent="1">
          <mxGeometry x="620" y="350" width="50" height="40" as="geometry" />
        </mxCell>
        <mxCell id="eINzgIuend_n-zqg4X1g-40" style="edgeStyle=orthogonalEdgeStyle;rounded=0;orthogonalLoop=1;jettySize=auto;html=1;entryX=0;entryY=0.5;entryDx=0;entryDy=0;strokeWidth=2;" edge="1" parent="1" source="eINzgIuend_n-zqg4X1g-41" target="eINzgIuend_n-zqg4X1g-51">
          <mxGeometry relative="1" as="geometry">
            <Array as="points">
              <mxPoint x="320" y="100" />
              <mxPoint x="320" y="180" />
            </Array>
          </mxGeometry>
        </mxCell>
        <mxCell id="eINzgIuend_n-zqg4X1g-41" value="&lt;font style=&quot;font-size: 16px;&quot;&gt;&lt;b&gt;h&lt;sub&gt;1&lt;/sub&gt;&lt;/b&gt;&lt;/font&gt;" style="rounded=0;whiteSpace=wrap;html=1;strokeWidth=2;fillColor=#fff2cc;strokeColor=#d6b656;" vertex="1" parent="1">
          <mxGeometry x="240" y="80" width="40" height="40" as="geometry" />
        </mxCell>
        <mxCell id="eINzgIuend_n-zqg4X1g-42" style="edgeStyle=orthogonalEdgeStyle;rounded=0;orthogonalLoop=1;jettySize=auto;html=1;entryX=0.5;entryY=1;entryDx=0;entryDy=0;strokeWidth=2;" edge="1" parent="1" source="eINzgIuend_n-zqg4X1g-46" target="eINzgIuend_n-zqg4X1g-41">
          <mxGeometry relative="1" as="geometry" />
        </mxCell>
        <mxCell id="eINzgIuend_n-zqg4X1g-43" style="edgeStyle=orthogonalEdgeStyle;rounded=0;orthogonalLoop=1;jettySize=auto;html=1;entryX=0;entryY=0.5;entryDx=0;entryDy=0;strokeWidth=2;" edge="1" parent="1" source="eINzgIuend_n-zqg4X1g-44" target="eINzgIuend_n-zqg4X1g-46">
          <mxGeometry relative="1" as="geometry">
            <Array as="points">
              <mxPoint x="200" y="100" />
              <mxPoint x="200" y="180" />
            </Array>
          </mxGeometry>
        </mxCell>
        <mxCell id="eINzgIuend_n-zqg4X1g-44" value="&lt;font style=&quot;font-size: 16px;&quot;&gt;&lt;b&gt;h&lt;sub&gt;0&lt;/sub&gt;&lt;/b&gt;&lt;/font&gt;" style="rounded=0;whiteSpace=wrap;html=1;strokeWidth=2;fillColor=#fff2cc;strokeColor=#d6b656;" vertex="1" parent="1">
          <mxGeometry x="120" y="80" width="40" height="40" as="geometry" />
        </mxCell>
        <mxCell id="eINzgIuend_n-zqg4X1g-45" value="" style="edgeStyle=orthogonalEdgeStyle;rounded=0;orthogonalLoop=1;jettySize=auto;html=1;entryX=0.5;entryY=1;entryDx=0;entryDy=0;strokeWidth=2;" edge="1" parent="1" target="eINzgIuend_n-zqg4X1g-46">
          <mxGeometry relative="1" as="geometry">
            <mxPoint x="260" y="240" as="sourcePoint" />
            <mxPoint x="260" y="120" as="targetPoint" />
          </mxGeometry>
        </mxCell>
        <mxCell id="eINzgIuend_n-zqg4X1g-46" value="f" style="ellipse;whiteSpace=wrap;html=1;aspect=fixed;strokeWidth=2;dashed=1;dashPattern=1 1;" vertex="1" parent="1">
          <mxGeometry x="250" y="170" width="20" height="20" as="geometry" />
        </mxCell>
        <mxCell id="eINzgIuend_n-zqg4X1g-47" style="edgeStyle=orthogonalEdgeStyle;rounded=0;orthogonalLoop=1;jettySize=auto;html=1;entryX=0;entryY=0.5;entryDx=0;entryDy=0;strokeWidth=2;" edge="1" parent="1" source="eINzgIuend_n-zqg4X1g-48" target="eINzgIuend_n-zqg4X1g-55">
          <mxGeometry relative="1" as="geometry">
            <Array as="points">
              <mxPoint x="440" y="100" />
              <mxPoint x="440" y="180" />
            </Array>
          </mxGeometry>
        </mxCell>
        <mxCell id="eINzgIuend_n-zqg4X1g-48" value="&lt;font style=&quot;font-size: 16px;&quot;&gt;&lt;b&gt;h&lt;sub&gt;2&lt;/sub&gt;&lt;/b&gt;&lt;/font&gt;" style="rounded=0;whiteSpace=wrap;html=1;strokeWidth=2;fillColor=#fff2cc;strokeColor=#d6b656;" vertex="1" parent="1">
          <mxGeometry x="360" y="80" width="40" height="40" as="geometry" />
        </mxCell>
        <mxCell id="eINzgIuend_n-zqg4X1g-49" style="edgeStyle=orthogonalEdgeStyle;rounded=0;orthogonalLoop=1;jettySize=auto;html=1;entryX=0.5;entryY=1;entryDx=0;entryDy=0;strokeWidth=2;" edge="1" parent="1" source="eINzgIuend_n-zqg4X1g-51" target="eINzgIuend_n-zqg4X1g-48">
          <mxGeometry relative="1" as="geometry" />
        </mxCell>
        <mxCell id="eINzgIuend_n-zqg4X1g-50" value="" style="edgeStyle=orthogonalEdgeStyle;rounded=0;orthogonalLoop=1;jettySize=auto;html=1;entryX=0.5;entryY=1;entryDx=0;entryDy=0;strokeWidth=2;" edge="1" parent="1" target="eINzgIuend_n-zqg4X1g-51">
          <mxGeometry relative="1" as="geometry">
            <mxPoint x="380" y="240" as="sourcePoint" />
            <mxPoint x="380" y="120" as="targetPoint" />
          </mxGeometry>
        </mxCell>
        <mxCell id="eINzgIuend_n-zqg4X1g-51" value="f" style="ellipse;whiteSpace=wrap;html=1;aspect=fixed;strokeWidth=2;dashed=1;dashPattern=1 1;" vertex="1" parent="1">
          <mxGeometry x="370" y="170" width="20" height="20" as="geometry" />
        </mxCell>
        <mxCell id="eINzgIuend_n-zqg4X1g-52" value="&lt;font style=&quot;font-size: 16px;&quot;&gt;&lt;b&gt;h&lt;sub&gt;3&lt;/sub&gt;&lt;/b&gt;&lt;/font&gt;" style="rounded=0;whiteSpace=wrap;html=1;strokeWidth=2;fillColor=#fff2cc;strokeColor=#d6b656;" vertex="1" parent="1">
          <mxGeometry x="480" y="80" width="40" height="40" as="geometry" />
        </mxCell>
        <mxCell id="eINzgIuend_n-zqg4X1g-53" style="edgeStyle=orthogonalEdgeStyle;rounded=0;orthogonalLoop=1;jettySize=auto;html=1;entryX=0.5;entryY=1;entryDx=0;entryDy=0;strokeWidth=2;" edge="1" parent="1" source="eINzgIuend_n-zqg4X1g-55" target="eINzgIuend_n-zqg4X1g-52">
          <mxGeometry relative="1" as="geometry" />
        </mxCell>
        <mxCell id="eINzgIuend_n-zqg4X1g-54" value="" style="edgeStyle=orthogonalEdgeStyle;rounded=0;orthogonalLoop=1;jettySize=auto;html=1;entryX=0.5;entryY=1;entryDx=0;entryDy=0;strokeWidth=2;" edge="1" parent="1" target="eINzgIuend_n-zqg4X1g-55">
          <mxGeometry relative="1" as="geometry">
            <mxPoint x="500" y="240" as="sourcePoint" />
            <mxPoint x="500" y="120" as="targetPoint" />
          </mxGeometry>
        </mxCell>
        <mxCell id="eINzgIuend_n-zqg4X1g-55" value="f" style="ellipse;whiteSpace=wrap;html=1;aspect=fixed;strokeWidth=2;dashed=1;dashPattern=1 1;" vertex="1" parent="1">
          <mxGeometry x="490" y="170" width="20" height="20" as="geometry" />
        </mxCell>
        <mxCell id="eINzgIuend_n-zqg4X1g-56" style="edgeStyle=orthogonalEdgeStyle;rounded=0;orthogonalLoop=1;jettySize=auto;html=1;entryX=0;entryY=0.5;entryDx=0;entryDy=0;strokeWidth=2;" edge="1" parent="1" target="eINzgIuend_n-zqg4X1g-60">
          <mxGeometry relative="1" as="geometry">
            <mxPoint x="520" y="100" as="sourcePoint" />
            <Array as="points">
              <mxPoint x="560" y="100" />
              <mxPoint x="560" y="180" />
            </Array>
          </mxGeometry>
        </mxCell>
        <mxCell id="eINzgIuend_n-zqg4X1g-57" value="&lt;font style=&quot;font-size: 16px;&quot;&gt;&lt;b&gt;h&lt;sub&gt;4&lt;/sub&gt;&lt;/b&gt;&lt;/font&gt;" style="rounded=0;whiteSpace=wrap;html=1;strokeWidth=2;fillColor=#fff2cc;strokeColor=#d6b656;" vertex="1" parent="1">
          <mxGeometry x="600" y="80" width="40" height="40" as="geometry" />
        </mxCell>
        <mxCell id="eINzgIuend_n-zqg4X1g-58" style="edgeStyle=orthogonalEdgeStyle;rounded=0;orthogonalLoop=1;jettySize=auto;html=1;entryX=0.5;entryY=1;entryDx=0;entryDy=0;strokeWidth=2;" edge="1" parent="1" source="eINzgIuend_n-zqg4X1g-60" target="eINzgIuend_n-zqg4X1g-57">
          <mxGeometry relative="1" as="geometry" />
        </mxCell>
        <mxCell id="eINzgIuend_n-zqg4X1g-59" value="" style="edgeStyle=orthogonalEdgeStyle;rounded=0;orthogonalLoop=1;jettySize=auto;html=1;entryX=0.5;entryY=1;entryDx=0;entryDy=0;strokeWidth=2;" edge="1" parent="1" target="eINzgIuend_n-zqg4X1g-60">
          <mxGeometry relative="1" as="geometry">
            <mxPoint x="620" y="240" as="sourcePoint" />
            <mxPoint x="620" y="120" as="targetPoint" />
          </mxGeometry>
        </mxCell>
        <mxCell id="eINzgIuend_n-zqg4X1g-60" value="f" style="ellipse;whiteSpace=wrap;html=1;aspect=fixed;strokeWidth=2;dashed=1;dashPattern=1 1;" vertex="1" parent="1">
          <mxGeometry x="610" y="170" width="20" height="20" as="geometry" />
        </mxCell>
        <mxCell id="eINzgIuend_n-zqg4X1g-61" value="&lt;font color=&quot;#204a87&quot; style=&quot;font-size: 16px;&quot;&gt;&lt;b&gt;W&lt;sub&gt;hh&lt;/sub&gt;&lt;/b&gt;&lt;/font&gt;" style="text;html=1;align=center;verticalAlign=middle;whiteSpace=wrap;rounded=0;" vertex="1" parent="1">
          <mxGeometry x="200" y="150" width="60" height="30" as="geometry" />
        </mxCell>
        <mxCell id="eINzgIuend_n-zqg4X1g-62" value="&lt;font color=&quot;#4e9a06&quot; style=&quot;font-size: 16px;&quot;&gt;&lt;b&gt;W&lt;sub&gt;ih&lt;/sub&gt;&lt;/b&gt;&lt;/font&gt;" style="text;html=1;align=center;verticalAlign=middle;whiteSpace=wrap;rounded=0;" vertex="1" parent="1">
          <mxGeometry x="260" y="190" width="50" height="40" as="geometry" />
        </mxCell>
        <mxCell id="eINzgIuend_n-zqg4X1g-63" value="&lt;font color=&quot;#204a87&quot; style=&quot;font-size: 16px;&quot;&gt;&lt;b&gt;W&lt;sub&gt;hh&lt;/sub&gt;&lt;/b&gt;&lt;/font&gt;" style="text;html=1;align=center;verticalAlign=middle;whiteSpace=wrap;rounded=0;" vertex="1" parent="1">
          <mxGeometry x="320" y="150" width="60" height="30" as="geometry" />
        </mxCell>
        <mxCell id="eINzgIuend_n-zqg4X1g-64" value="&lt;font color=&quot;#4e9a06&quot; style=&quot;font-size: 16px;&quot;&gt;&lt;b&gt;W&lt;sub&gt;ih&lt;/sub&gt;&lt;/b&gt;&lt;/font&gt;" style="text;html=1;align=center;verticalAlign=middle;whiteSpace=wrap;rounded=0;" vertex="1" parent="1">
          <mxGeometry x="380" y="190" width="50" height="40" as="geometry" />
        </mxCell>
        <mxCell id="eINzgIuend_n-zqg4X1g-65" value="&lt;font color=&quot;#204a87&quot; style=&quot;font-size: 16px;&quot;&gt;&lt;b&gt;W&lt;sub&gt;hh&lt;/sub&gt;&lt;/b&gt;&lt;/font&gt;" style="text;html=1;align=center;verticalAlign=middle;whiteSpace=wrap;rounded=0;" vertex="1" parent="1">
          <mxGeometry x="440" y="150" width="60" height="30" as="geometry" />
        </mxCell>
        <mxCell id="eINzgIuend_n-zqg4X1g-66" value="&lt;font color=&quot;#4e9a06&quot; style=&quot;font-size: 16px;&quot;&gt;&lt;b&gt;W&lt;sub&gt;ih&lt;/sub&gt;&lt;/b&gt;&lt;/font&gt;" style="text;html=1;align=center;verticalAlign=middle;whiteSpace=wrap;rounded=0;" vertex="1" parent="1">
          <mxGeometry x="500" y="190" width="50" height="40" as="geometry" />
        </mxCell>
        <mxCell id="eINzgIuend_n-zqg4X1g-67" value="&lt;font color=&quot;#204a87&quot; style=&quot;font-size: 16px;&quot;&gt;&lt;b&gt;W&lt;sub&gt;hh&lt;/sub&gt;&lt;/b&gt;&lt;/font&gt;" style="text;html=1;align=center;verticalAlign=middle;whiteSpace=wrap;rounded=0;" vertex="1" parent="1">
          <mxGeometry x="560" y="150" width="60" height="30" as="geometry" />
        </mxCell>
        <mxCell id="eINzgIuend_n-zqg4X1g-68" value="&lt;font color=&quot;#4e9a06&quot; style=&quot;font-size: 16px;&quot;&gt;&lt;b&gt;W&lt;sub&gt;ih&lt;/sub&gt;&lt;/b&gt;&lt;/font&gt;" style="text;html=1;align=center;verticalAlign=middle;whiteSpace=wrap;rounded=0;" vertex="1" parent="1">
          <mxGeometry x="620" y="190" width="50" height="40" as="geometry" />
        </mxCell>
        <mxCell id="eINzgIuend_n-zqg4X1g-69" value="&lt;b&gt;&lt;font style=&quot;font-size: 10px;&quot;&gt;(1)&lt;/font&gt;&lt;/b&gt;" style="text;html=1;align=center;verticalAlign=middle;resizable=0;points=[];autosize=1;strokeColor=none;fillColor=none;" vertex="1" parent="1">
          <mxGeometry x="125" y="75" width="40" height="30" as="geometry" />
        </mxCell>
        <mxCell id="eINzgIuend_n-zqg4X1g-70" value="&lt;b&gt;&lt;font style=&quot;font-size: 10px;&quot;&gt;(1)&lt;/font&gt;&lt;/b&gt;" style="text;html=1;align=center;verticalAlign=middle;resizable=0;points=[];autosize=1;strokeColor=none;fillColor=none;" vertex="1" parent="1">
          <mxGeometry x="245" y="75" width="40" height="30" as="geometry" />
        </mxCell>
        <mxCell id="eINzgIuend_n-zqg4X1g-71" value="&lt;b&gt;&lt;font style=&quot;font-size: 10px;&quot;&gt;(1)&lt;/font&gt;&lt;/b&gt;" style="text;html=1;align=center;verticalAlign=middle;resizable=0;points=[];autosize=1;strokeColor=none;fillColor=none;" vertex="1" parent="1">
          <mxGeometry x="365" y="75" width="40" height="30" as="geometry" />
        </mxCell>
        <mxCell id="eINzgIuend_n-zqg4X1g-72" value="&lt;b&gt;&lt;font style=&quot;font-size: 10px;&quot;&gt;(1)&lt;/font&gt;&lt;/b&gt;" style="text;html=1;align=center;verticalAlign=middle;resizable=0;points=[];autosize=1;strokeColor=none;fillColor=none;" vertex="1" parent="1">
          <mxGeometry x="485" y="75" width="40" height="30" as="geometry" />
        </mxCell>
        <mxCell id="eINzgIuend_n-zqg4X1g-73" value="&lt;b&gt;&lt;font style=&quot;font-size: 10px;&quot;&gt;(1)&lt;/font&gt;&lt;/b&gt;" style="text;html=1;align=center;verticalAlign=middle;resizable=0;points=[];autosize=1;strokeColor=none;fillColor=none;" vertex="1" parent="1">
          <mxGeometry x="605" y="75" width="40" height="30" as="geometry" />
        </mxCell>
        <mxCell id="eINzgIuend_n-zqg4X1g-74" value="&lt;b&gt;&lt;font style=&quot;font-size: 10px;&quot;&gt;(0)&lt;/font&gt;&lt;/b&gt;" style="text;html=1;align=center;verticalAlign=middle;resizable=0;points=[];autosize=1;strokeColor=none;fillColor=none;" vertex="1" parent="1">
          <mxGeometry x="125" y="236" width="40" height="30" as="geometry" />
        </mxCell>
        <mxCell id="eINzgIuend_n-zqg4X1g-75" value="&lt;b&gt;&lt;font style=&quot;font-size: 10px;&quot;&gt;(0)&lt;/font&gt;&lt;/b&gt;" style="text;html=1;align=center;verticalAlign=middle;resizable=0;points=[];autosize=1;strokeColor=none;fillColor=none;" vertex="1" parent="1">
          <mxGeometry x="245" y="236" width="40" height="30" as="geometry" />
        </mxCell>
        <mxCell id="eINzgIuend_n-zqg4X1g-76" value="&lt;b&gt;&lt;font style=&quot;font-size: 10px;&quot;&gt;(0)&lt;/font&gt;&lt;/b&gt;" style="text;html=1;align=center;verticalAlign=middle;resizable=0;points=[];autosize=1;strokeColor=none;fillColor=none;" vertex="1" parent="1">
          <mxGeometry x="365" y="236" width="40" height="30" as="geometry" />
        </mxCell>
        <mxCell id="eINzgIuend_n-zqg4X1g-77" value="&lt;b&gt;&lt;font style=&quot;font-size: 10px;&quot;&gt;(0)&lt;/font&gt;&lt;/b&gt;" style="text;html=1;align=center;verticalAlign=middle;resizable=0;points=[];autosize=1;strokeColor=none;fillColor=none;" vertex="1" parent="1">
          <mxGeometry x="485" y="236" width="40" height="30" as="geometry" />
        </mxCell>
        <mxCell id="eINzgIuend_n-zqg4X1g-78" value="&lt;b&gt;&lt;font style=&quot;font-size: 10px;&quot;&gt;(0)&lt;/font&gt;&lt;/b&gt;" style="text;html=1;align=center;verticalAlign=middle;resizable=0;points=[];autosize=1;strokeColor=none;fillColor=none;" vertex="1" parent="1">
          <mxGeometry x="605" y="236" width="40" height="30" as="geometry" />
        </mxCell>
        <mxCell id="eINzgIuend_n-zqg4X1g-80" value="&lt;font color=&quot;#c4a000&quot;&gt;&lt;b&gt;&lt;font style=&quot;font-size: 10px;&quot;&gt;(0)&lt;/font&gt;&lt;/b&gt;&lt;/font&gt;" style="text;html=1;align=center;verticalAlign=middle;resizable=0;points=[];autosize=1;strokeColor=none;fillColor=none;" vertex="1" parent="1">
          <mxGeometry x="216" y="300" width="40" height="30" as="geometry" />
        </mxCell>
        <mxCell id="eINzgIuend_n-zqg4X1g-81" value="&lt;font color=&quot;#c4a000&quot;&gt;&lt;b&gt;&lt;font style=&quot;font-size: 10px;&quot;&gt;(0)&lt;/font&gt;&lt;/b&gt;&lt;/font&gt;" style="text;html=1;align=center;verticalAlign=middle;resizable=0;points=[];autosize=1;strokeColor=none;fillColor=none;" vertex="1" parent="1">
          <mxGeometry x="336" y="300" width="40" height="30" as="geometry" />
        </mxCell>
        <mxCell id="eINzgIuend_n-zqg4X1g-82" value="&lt;font color=&quot;#c4a000&quot;&gt;&lt;b&gt;&lt;font style=&quot;font-size: 10px;&quot;&gt;(0)&lt;/font&gt;&lt;/b&gt;&lt;/font&gt;" style="text;html=1;align=center;verticalAlign=middle;resizable=0;points=[];autosize=1;strokeColor=none;fillColor=none;" vertex="1" parent="1">
          <mxGeometry x="456" y="300" width="40" height="30" as="geometry" />
        </mxCell>
        <mxCell id="eINzgIuend_n-zqg4X1g-83" value="&lt;font color=&quot;#c4a000&quot;&gt;&lt;b&gt;&lt;font style=&quot;font-size: 10px;&quot;&gt;(0)&lt;/font&gt;&lt;/b&gt;&lt;/font&gt;" style="text;html=1;align=center;verticalAlign=middle;resizable=0;points=[];autosize=1;strokeColor=none;fillColor=none;" vertex="1" parent="1">
          <mxGeometry x="576" y="300" width="40" height="30" as="geometry" />
        </mxCell>
        <mxCell id="eINzgIuend_n-zqg4X1g-85" value="&lt;font color=&quot;#204a87&quot;&gt;&lt;b&gt;&lt;font style=&quot;font-size: 10px;&quot;&gt;(1)&lt;/font&gt;&lt;/b&gt;&lt;/font&gt;" style="text;html=1;align=center;verticalAlign=middle;resizable=0;points=[];autosize=1;strokeColor=none;fillColor=none;" vertex="1" parent="1">
          <mxGeometry x="216" y="140" width="40" height="30" as="geometry" />
        </mxCell>
        <mxCell id="eINzgIuend_n-zqg4X1g-86" value="&lt;font color=&quot;#204a87&quot;&gt;&lt;b&gt;&lt;font style=&quot;font-size: 10px;&quot;&gt;(1)&lt;/font&gt;&lt;/b&gt;&lt;/font&gt;" style="text;html=1;align=center;verticalAlign=middle;resizable=0;points=[];autosize=1;strokeColor=none;fillColor=none;" vertex="1" parent="1">
          <mxGeometry x="336" y="140" width="40" height="30" as="geometry" />
        </mxCell>
        <mxCell id="eINzgIuend_n-zqg4X1g-87" value="&lt;font color=&quot;#204a87&quot;&gt;&lt;b&gt;&lt;font style=&quot;font-size: 10px;&quot;&gt;(1)&lt;/font&gt;&lt;/b&gt;&lt;/font&gt;" style="text;html=1;align=center;verticalAlign=middle;resizable=0;points=[];autosize=1;strokeColor=none;fillColor=none;" vertex="1" parent="1">
          <mxGeometry x="456" y="140" width="40" height="30" as="geometry" />
        </mxCell>
        <mxCell id="eINzgIuend_n-zqg4X1g-88" value="&lt;font color=&quot;#204a87&quot;&gt;&lt;b&gt;&lt;font style=&quot;font-size: 10px;&quot;&gt;(1)&lt;/font&gt;&lt;/b&gt;&lt;/font&gt;" style="text;html=1;align=center;verticalAlign=middle;resizable=0;points=[];autosize=1;strokeColor=none;fillColor=none;" vertex="1" parent="1">
          <mxGeometry x="576" y="140" width="40" height="30" as="geometry" />
        </mxCell>
        <mxCell id="eINzgIuend_n-zqg4X1g-89" value="&lt;font color=&quot;#4e9a06&quot;&gt;&lt;b&gt;&lt;font style=&quot;font-size: 10px;&quot;&gt;(1)&lt;/font&gt;&lt;/b&gt;&lt;/font&gt;" style="text;html=1;align=center;verticalAlign=middle;resizable=0;points=[];autosize=1;strokeColor=none;fillColor=none;" vertex="1" parent="1">
          <mxGeometry x="273" y="185" width="40" height="30" as="geometry" />
        </mxCell>
        <mxCell id="eINzgIuend_n-zqg4X1g-90" value="&lt;font color=&quot;#4e9a06&quot;&gt;&lt;b&gt;&lt;font style=&quot;font-size: 10px;&quot;&gt;(1)&lt;/font&gt;&lt;/b&gt;&lt;/font&gt;" style="text;html=1;align=center;verticalAlign=middle;resizable=0;points=[];autosize=1;strokeColor=none;fillColor=none;" vertex="1" parent="1">
          <mxGeometry x="393" y="185" width="40" height="30" as="geometry" />
        </mxCell>
        <mxCell id="eINzgIuend_n-zqg4X1g-91" value="&lt;font color=&quot;#4e9a06&quot;&gt;&lt;b&gt;&lt;font style=&quot;font-size: 10px;&quot;&gt;(1)&lt;/font&gt;&lt;/b&gt;&lt;/font&gt;" style="text;html=1;align=center;verticalAlign=middle;resizable=0;points=[];autosize=1;strokeColor=none;fillColor=none;" vertex="1" parent="1">
          <mxGeometry x="513" y="185" width="40" height="30" as="geometry" />
        </mxCell>
        <mxCell id="eINzgIuend_n-zqg4X1g-92" value="&lt;font color=&quot;#4e9a06&quot;&gt;&lt;b&gt;&lt;font style=&quot;font-size: 10px;&quot;&gt;(1)&lt;/font&gt;&lt;/b&gt;&lt;/font&gt;" style="text;html=1;align=center;verticalAlign=middle;resizable=0;points=[];autosize=1;strokeColor=none;fillColor=none;" vertex="1" parent="1">
          <mxGeometry x="633" y="185" width="40" height="30" as="geometry" />
        </mxCell>
        <mxCell id="eINzgIuend_n-zqg4X1g-93" value="&lt;font color=&quot;#a40000&quot;&gt;&lt;b&gt;&lt;font style=&quot;font-size: 10px;&quot;&gt;(0)&lt;/font&gt;&lt;/b&gt;&lt;/font&gt;" style="text;html=1;align=center;verticalAlign=middle;resizable=0;points=[];autosize=1;strokeColor=none;fillColor=none;" vertex="1" parent="1">
          <mxGeometry x="273" y="345" width="40" height="30" as="geometry" />
        </mxCell>
        <mxCell id="eINzgIuend_n-zqg4X1g-94" value="&lt;font color=&quot;#a40000&quot;&gt;&lt;b&gt;&lt;font style=&quot;font-size: 10px;&quot;&gt;(0)&lt;/font&gt;&lt;/b&gt;&lt;/font&gt;" style="text;html=1;align=center;verticalAlign=middle;resizable=0;points=[];autosize=1;strokeColor=none;fillColor=none;" vertex="1" parent="1">
          <mxGeometry x="393" y="345" width="40" height="30" as="geometry" />
        </mxCell>
        <mxCell id="eINzgIuend_n-zqg4X1g-95" value="&lt;font color=&quot;#a40000&quot;&gt;&lt;b&gt;&lt;font style=&quot;font-size: 10px;&quot;&gt;(0)&lt;/font&gt;&lt;/b&gt;&lt;/font&gt;" style="text;html=1;align=center;verticalAlign=middle;resizable=0;points=[];autosize=1;strokeColor=none;fillColor=none;" vertex="1" parent="1">
          <mxGeometry x="513" y="345" width="40" height="30" as="geometry" />
        </mxCell>
        <mxCell id="eINzgIuend_n-zqg4X1g-96" value="&lt;font color=&quot;#a40000&quot;&gt;&lt;b&gt;&lt;font style=&quot;font-size: 10px;&quot;&gt;(0)&lt;/font&gt;&lt;/b&gt;&lt;/font&gt;" style="text;html=1;align=center;verticalAlign=middle;resizable=0;points=[];autosize=1;strokeColor=none;fillColor=none;" vertex="1" parent="1">
          <mxGeometry x="633" y="345" width="40" height="30" as="geometry" />
        </mxCell>
      </root>
    </mxGraphModel>
  </diagram>
</mxfile>
